<svg aria-hidden="true" style="position: absolute; width: 0; height: 0; overflow: hidden;" version="1.1"
    xmlns="http://www.w3.org/2000/svg" xmlns:xlink="http://www.w3.org/1999/xlink">
    <defs>
        <symbol id="icon-cart" viewBox="0 0 29 32">
            <path
                d="M21.224 7.273c-0.028-0.117-0.056-0.235-0.086-0.353-0.389-1.536-1.002-3.205-2.002-4.52-1.031-1.356-2.536-2.4-4.59-2.4s-3.56 1.044-4.59 2.4c-1 1.315-1.613 2.984-2.002 4.52-0.030 0.118-0.059 0.235-0.086 0.353h-2.36c-2.329 0-4.26 1.781-4.415 4.073l-1.082 16c-0.17 2.519 1.855 4.654 4.415 4.654h20.241c2.559 0 4.585-2.135 4.415-4.654l-1.081-16c-0.155-2.292-2.085-4.073-4.415-4.073h-2.36zM8.646 14.545c0.845 0 1.472-0.628 1.475-1.457 0-0.035 0.001-0.069 0.001-0.104 0.001-0.077 0.004-0.192 0.009-0.342 0.011-0.299 0.033-0.73 0.076-1.249 0.031-0.368 0.073-0.777 0.129-1.212h8.416c0.056 0.434 0.098 0.843 0.129 1.212 0.044 0.519 0.066 0.95 0.076 1.249 0.005 0.149 0.008 0.265 0.009 0.342 0.001 0.036 0.001 0.071 0.001 0.107 0 0 0 1.454 1.475 1.454s1.475-1.457 1.475-1.457c-0-0.051-0.001-0.102-0.002-0.153-0.001-0.094-0.005-0.228-0.011-0.397-0.012-0.338-0.037-0.815-0.085-1.387-0.025-0.298-0.057-0.624-0.097-0.97h1.86c0.776 0 1.42 0.594 1.472 1.358l1.082 16c0.057 0.84-0.618 1.551-1.472 1.551h-20.241c-0.853 0-1.528-0.712-1.472-1.551l1.082-16c0.052-0.764 0.695-1.358 1.472-1.358h1.86c-0.040 0.346-0.072 0.672-0.098 0.97-0.048 0.572-0.073 1.049-0.085 1.387-0.006 0.169-0.009 0.303-0.011 0.397-0.001 0.050-0.002 0.1-0.002 0.15-0.001 0.83 0.632 1.46 1.475 1.46zM10.908 7.273c0.341-1.232 0.805-2.335 1.407-3.127 0.628-0.826 1.335-1.236 2.231-1.236s1.602 0.41 2.231 1.236c0.602 0.792 1.066 1.896 1.407 3.127h-7.275z">
            </path>
        </symbol>
        <symbol id="icon-search" viewBox="0 0 31 32">
            <path
                d="M22.315 21.043c1.714-2.143 2.739-4.862 2.739-7.82 0-6.919-5.609-12.527-12.527-12.527s-12.527 5.609-12.527 12.527c0 6.919 5.609 12.527 12.527 12.527 2.958 0 5.676-1.025 7.82-2.739l7.886 7.886c0.544 0.544 1.425 0.544 1.969 0s0.544-1.425 0-1.969l-7.886-7.886zM12.527 22.981c-5.389 0-9.758-4.369-9.758-9.758s4.369-9.758 9.758-9.758c5.389 0 9.757 4.369 9.757 9.758s-4.369 9.758-9.758 9.758z">
            </path>
        </symbol>
        <symbol id="icon-user" viewBox="0 0 26 32">
            <path
                d="M13.091 16c4.017 0 7.273-3.582 7.273-8s-3.256-8-7.273-8c-4.017 0-7.273 3.582-7.273 8s3.256 8 7.273 8zM13.091 12.8c-2.41 0-4.364-2.149-4.364-4.8s1.954-4.8 4.364-4.8c2.41 0 4.364 2.149 4.364 4.8s-1.954 4.8-4.364 4.8z">
            </path>
            <path
                d="M23.422 19.067c-1.225-1.23-3.121-1.495-4.635-0.596-0.277 0.164-0.521 0.315-0.745 0.454-0.596 0.368-1.059 0.654-1.656 0.899-0.75 0.308-1.719 0.541-3.295 0.541-1.561 0-2.547-0.22-3.307-0.517-0.673-0.263-1.204-0.593-1.904-1.028-0.137-0.085-0.28-0.174-0.431-0.267-1.519-0.933-3.47-0.716-4.736 0.564-0.552 0.558-1.198 1.28-1.715 2.066-0.493 0.75-0.996 1.747-0.996 2.818v3.637c0 2.41 1.954 4.363 4.364 4.363h17.455c2.41 0 4.364-1.953 4.364-4.363v-3.637c0-1.085-0.517-2.096-1.019-2.852-0.527-0.795-1.185-1.523-1.741-2.081zM20.272 20.973c0.348-0.206 0.787-0.156 1.090 0.148 0.487 0.489 0.998 1.064 1.377 1.636 0.405 0.61 0.534 1.028 0.534 1.244v3.637c0 0.803-0.651 1.454-1.455 1.454h-17.455c-0.804 0-1.455-0.651-1.455-1.454v-3.637c0-0.211 0.124-0.621 0.518-1.22 0.369-0.562 0.869-1.13 1.352-1.618 0.303-0.306 0.764-0.366 1.146-0.131 0.12 0.074 0.243 0.15 0.368 0.229 0.702 0.438 1.487 0.928 2.431 1.297 1.156 0.452 2.51 0.716 4.366 0.716 1.891 0 3.246-0.284 4.401-0.759 0.837-0.344 1.575-0.8 2.226-1.203 0.192-0.119 0.377-0.233 0.554-0.338z">
            </path>
        </symbol>
        <svg aria-hidden="true" style="position: absolute; width: 0; height: 0; overflow: hidden;" version="1.1"
            xmlns="http://www.w3.org/2000/svg" xmlns:xlink="http://www.w3.org/1999/xlink">
            <defs>
                <symbol id="icon-sustainability" viewBox="0 0 32 32">
                    <path
                        d="M13.63 0.082l-0.008-0.011-0.020 0.015c-7.645 0.813-13.602 7.288-13.602 15.161 0 3.525 1.195 6.771 3.203 9.354v0.003h0.003c1.269 1.637 2.858 2.997 4.67 3.997s3.809 1.62 5.868 1.821c0.072-0.726 0.248-1.485 0.513-2.252-3.285-0.244-6.353-1.737-8.575-4.172 0.084-0.366 0.122-0.791 0.152-1.16l0.014-0.18c0.027-0.335 0.053-0.659 0.096-0.985 0.107-0.804 0.289-1.34 0.574-1.644 0.365-0.392 0.74-0.457 1.524-0.596l0.142-0.026c0.402-0.070 0.94-0.178 1.457-0.46 0.553-0.302 1.020-0.762 1.372-1.441 0.355-0.683 0.329-1.388 0.231-1.944-0.089-0.446-0.206-0.885-0.35-1.316-0.024-0.075-0.047-0.15-0.070-0.226-0.312-1.018-0.35-1.514-0.093-1.906 0.28-0.427 0.664-0.525 1.663-0.784l0.129-0.032c1.014-0.262 2.388-0.701 3.183-2.398 0.862-1.837 0.376-3.909-0.152-5.315-0.167-0.442-0.356-0.874-0.568-1.296 0.081-0.003 0.161-0.003 0.242-0.003 2.445-0.004 4.84 0.689 6.906 1.997-0.292 0.389-0.684 0.901-1.121 1.449-0.959 1.2-2.041 2.435-2.778 2.988-0.339 0.248-0.597 0.592-0.74 0.988-0.123 0.36-0.152 0.745-0.084 1.119 0.107 0.634 0.443 1.229 0.742 1.683 0.248 0.38 0.541 0.762 0.786 1.086l0.168 0.218c0.142 0.191 0.259 0.348 0.346 0.483 0.044 0.066 0.076 0.119 0.097 0.159 0.021 0.038 0.029 0.058 0.030 0.059 0.061 0.168 0.126 0.442 0.203 0.823l0.034 0.162c0.676-0.302 1.409-0.534 2.193-0.678-0.069-0.372-0.165-0.739-0.286-1.098-0.168-0.453-0.531-0.939-0.793-1.287-0.066-0.087-0.132-0.173-0.198-0.259-0.233-0.3-0.456-0.607-0.669-0.922-0.236-0.36-0.35-0.608-0.388-0.759 0.99-0.765 2.205-2.19 3.122-3.335 0.451-0.564 0.853-1.090 1.153-1.493 2.512 2.288 4.022 5.476 4.203 8.871 0.883 0.070 1.645 0.186 2.3 0.322-0.204-8.243-6.941-14.863-15.224-14.863-0.539 0-1.074 0.027-1.599 0.082zM3.71 21.165c-0.908-1.772-1.395-3.729-1.425-5.72s0.398-3.962 1.252-5.761 2.11-3.376 3.67-4.61c1.561-1.234 3.385-2.092 5.33-2.506 0.346 0.581 0.642 1.191 0.882 1.824 0.478 1.273 0.67 2.578 0.222 3.537-0.343 0.729-0.83 0.935-1.687 1.156l-0.247 0.061c-0.81 0.197-2.088 0.505-2.883 1.712-0.915 1.391-0.464 2.914-0.183 3.835l0.091 0.293c0.122 0.389 0.213 0.686 0.262 0.97 0.058 0.331 0.015 0.451-0.006 0.496-0.152 0.294-0.305 0.415-0.439 0.488-0.168 0.091-0.387 0.152-0.764 0.218-0.061 0.012-0.128 0.023-0.198 0.034-0.705 0.116-1.826 0.3-2.738 1.281-0.74 0.793-1.010 1.845-1.139 2.694zM15.24 30.807c0.091-1.471 0.754-3.266 1.878-4.957 0.364-0.619 0.813-1.246 1.349-1.857 1.807-2.058 4.194-3.52 6.847-4.193 0.196-0.049 0.365-0.174 0.469-0.348s0.135-0.381 0.086-0.578c-0.049-0.196-0.174-0.365-0.347-0.469s-0.381-0.135-0.577-0.086c-2.953 0.749-5.611 2.376-7.622 4.667-0.407 0.465-0.777 0.948-1.106 1.438-0.15-0.504-0.226-1.028-0.225-1.554 0-1.398 0.711-2.917 1.838-4.121 1.285-1.369 3.005-2.25 4.866-2.491 4.264-0.564 6.911-0.091 8.472 0.346 0.211 0.059 0.4 0.178 0.546 0.342s0.241 0.366 0.275 0.583c0.034 0.217 0.005 0.438-0.084 0.639s-0.233 0.371-0.415 0.492c-0.087 0.058-0.227 0.198-0.396 0.518-0.2 0.404-0.363 0.825-0.487 1.258-0.132 0.433-0.259 0.901-0.396 1.41l-0.088 0.323c-0.169 0.625-0.356 1.296-0.582 1.961-0.445 1.314-1.072 2.717-2.127 3.794-1.095 1.118-2.581 1.814-4.567 1.814-2.024 0-3.437-0.822-4.34-1.767-0.615 1.128-0.935 2.191-0.984 2.975-0.023 0.299-0.163 0.577-0.389 0.773s-0.52 0.297-0.819 0.279c-0.299-0.018-0.579-0.153-0.779-0.376s-0.306-0.515-0.293-0.815z">
                    </path>
                </symbol>
                <symbol id="icon-support" viewBox="0 0 32 32">
                    <path
                        d="M16 0c-8.822 0-16 7.178-16 16v6.629c0 1.638 1.435 2.971 3.2 2.971h1.6c0.424 0 0.831-0.169 1.131-0.469s0.469-0.707 0.469-1.131v-8.229c0-0.424-0.169-0.831-0.469-1.131s-0.707-0.469-1.131-0.469h-1.453c0.89-6.192 6.218-10.971 12.653-10.971s11.763 4.779 12.653 10.971h-1.453c-0.424 0-0.831 0.169-1.131 0.469s-0.469 0.707-0.469 1.131v9.829c0 1.765-1.435 3.2-3.2 3.2h-3.2v-1.6h-6.4v4.8h9.6c3.53 0 6.4-2.87 6.4-6.4 1.765 0 3.2-1.333 3.2-2.971v-6.629c0-8.822-7.178-16-16-16z">
                    </path>
                </symbol>
                <symbol id="icon-natural" viewBox="0 0 32 32">
                    <path
                        d="M27.139 8.792c0.001 0.811-0.112 1.618-0.335 2.398h2.625c1.421 0 2.571 1.135 2.571 2.535v7.855c0 1.953-0.558 3.866-1.609 5.52s-2.555 2.983-4.336 3.833c-1.782 0.85-3.77 1.188-5.738 0.974s-3.834-0.97-5.386-2.182l-1.92 1.893c-0.111 0.118-0.245 0.212-0.394 0.278s-0.31 0.101-0.473 0.104c-0.163 0.003-0.325-0.027-0.477-0.087s-0.289-0.15-0.404-0.264c-0.115-0.114-0.206-0.249-0.267-0.399s-0.091-0.309-0.088-0.47c0.003-0.161 0.039-0.32 0.105-0.467s0.162-0.279 0.282-0.389l1.918-1.894c-0.645-0.802-1.165-1.693-1.546-2.646-1.413 0.284-2.872 0.255-4.271-0.085s-2.705-0.984-3.822-1.884c-1.117-0.9-2.017-2.033-2.634-3.318s-0.938-2.69-0.938-4.112v-7.171c0-1.336 1.099-2.42 2.453-2.42h7.199c0.53-1.841 1.654-3.462 3.201-4.616s3.435-1.778 5.375-1.778h6.578c1.288 0 2.333 1.031 2.333 2.302v6.49zM12.107 6.685c1.345 0.337 2.601 0.953 3.685 1.808s1.97 1.928 2.6 3.148c0.997-0.3 2.034-0.452 3.077-0.451h2.771c0.311-0.762 0.471-1.576 0.47-2.398v-6.394h-6.481c-1.345 0-2.657 0.413-3.753 1.181s-1.924 1.854-2.368 3.106zM16.664 28.015c1.207 0.877 2.636 1.406 4.129 1.529s2.992-0.165 4.329-0.832c1.337-0.667 2.461-1.687 3.246-2.946s1.201-2.709 1.201-4.187v-7.855c0-0.018-0.004-0.036-0.011-0.053s-0.017-0.032-0.030-0.045c-0.013-0.013-0.028-0.023-0.045-0.030s-0.035-0.010-0.053-0.010h-7.962c-1.498 0-2.968 0.41-4.244 1.185s-2.31 1.883-2.986 3.202c-0.676 1.319-0.968 2.798-0.843 4.271s0.661 2.883 1.55 4.074l6.88-6.786c0.111-0.118 0.245-0.212 0.394-0.278s0.31-0.101 0.473-0.104c0.163-0.003 0.325 0.027 0.477 0.087s0.289 0.15 0.404 0.264c0.115 0.114 0.206 0.249 0.267 0.399s0.091 0.309 0.088 0.47c-0.003 0.161-0.039 0.32-0.105 0.467s-0.162 0.279-0.282 0.389l-6.878 6.787zM10.937 21.58c0-0.946 0.13-1.864 0.369-2.735l-4.469-4.41c-0.119-0.11-0.215-0.242-0.282-0.389s-0.102-0.306-0.105-0.467c-0.003-0.161 0.027-0.321 0.088-0.47s0.152-0.285 0.267-0.399c0.115-0.114 0.253-0.204 0.404-0.264s0.313-0.090 0.477-0.087c0.163 0.003 0.324 0.038 0.473 0.104s0.283 0.16 0.394 0.278l3.756 3.704c0.919-1.591 2.246-2.915 3.848-3.84-0.622-1.152-1.549-2.115-2.683-2.787s-2.432-1.026-3.754-1.026l-7.285 0.006c-0.002 0.002-0.004 0.005-0.005 0.008l-0.002 0.008v7.171c-0 1.055 0.235 2.098 0.689 3.053s1.115 1.801 1.937 2.476c0.822 0.675 1.784 1.164 2.819 1.431s2.116 0.306 3.168 0.115c-0.071-0.49-0.107-0.985-0.107-1.48z">
                    </path>
                </symbol>
                <symbol id="icon-delivery" viewBox="0 0 33 32">
                    <path
                        d="M14.653 1.846v0zM16.246 1.469v0zM17.84 1.846v0zM30.172 8.1l0.464-0.915-0-0-0.464 0.915zM31.015 9.41v0zM31.015 21.75v0zM29.327 24.37l-0.464-0.915-0 0 0.464 0.915zM17.84 30.199l0.464 0.915 0-0-0.464-0.915zM14.653 30.199l-0.464 0.915 0 0 0.464-0.915zM3.166 24.37l0.464-0.915-0-0-0.464 0.915zM1.477 21.752v0zM1.477 9.41v0zM2.32 8.1l-0.464-0.915-0 0 0.464 0.914zM8.398 11.361c-0.505 0.256-0.707 0.874-0.451 1.379s0.873 0.707 1.379 0.451l-0.928-1.829zM24.095 5.698c0.505-0.256 0.707-0.874 0.451-1.379s-0.873-0.707-1.379-0.451l0.928 1.829zM6.865 15.599c-0.505-0.257-1.122-0.056-1.379 0.449s-0.056 1.122 0.449 1.379l0.93-1.828zM10.858 19.933c0.505 0.257 1.122 0.056 1.379-0.449s0.056-1.122-0.449-1.379l-0.93 1.828zM14.653 1.846l0.464 0.915c0.341-0.173 0.73-0.266 1.13-0.266v-2.051c-0.715 0-1.423 0.166-2.057 0.488l0.464 0.915zM16.246 1.469v1.026c0.4 0 0.789 0.093 1.13 0.266l0.928-1.829c-0.634-0.322-1.342-0.488-2.057-0.488v1.026zM17.84 1.846l-0.464 0.915 12.332 6.255 0.928-1.829-12.332-6.255-0.464 0.915zM30.172 8.1l-0.464 0.915c0.101 0.052 0.174 0.121 0.219 0.191l1.725-1.111c-0.251-0.391-0.605-0.701-1.015-0.909l-0.464 0.915zM30.789 8.65l-0.862 0.555c0.044 0.069 0.063 0.139 0.063 0.204l2.051 0c0-0.469-0.138-0.924-0.39-1.315l-0.862 0.555zM31.015 9.41h-1.026v12.34h2.051v-12.34h-1.026zM31.015 21.75l-1.026-0c-0 0.332-0.097 0.665-0.29 0.964l1.724 1.111c0.401-0.622 0.617-1.338 0.617-2.075l-1.026-0zM30.562 23.27l-0.862-0.556c-0.194 0.3-0.479 0.559-0.837 0.741l0.928 1.829c0.666-0.338 1.233-0.838 1.633-1.459l-0.862-0.556zM29.327 24.37l-0.464-0.915-11.487 5.829 0.928 1.829 11.487-5.829-0.464-0.915zM17.84 30.199l-0.464-0.915c-0.341 0.173-0.73 0.266-1.13 0.266v2.051c0.715 0 1.423-0.166 2.057-0.488l-0.464-0.915zM16.246 30.576v-1.026c-0.4 0-0.789-0.093-1.13-0.266l-0.928 1.829c0.634 0.322 1.342 0.488 2.057 0.488v-1.026zM14.653 30.199l0.464-0.915-11.487-5.829-0.928 1.829 11.487 5.829 0.464-0.915zM3.166 24.37l0.464-0.915c-0.357-0.181-0.643-0.44-0.837-0.74l-1.724 1.112c0.4 0.62 0.967 1.12 1.633 1.458l0.464-0.915zM1.931 23.271l0.862-0.556c-0.193-0.299-0.29-0.632-0.29-0.964l-2.051 0.002c0.001 0.736 0.217 1.453 0.618 2.074l0.862-0.556zM1.477 21.752h1.026v-12.342h-2.051v12.342h1.026zM1.477 9.41h1.026c0-0.065 0.019-0.135 0.063-0.204l-1.725-1.111c-0.252 0.391-0.39 0.846-0.39 1.315l1.026-0zM1.703 8.65l0.862 0.555c0.045-0.070 0.118-0.139 0.219-0.191l-0.929-1.829c-0.41 0.208-0.763 0.519-1.015 0.909l0.862 0.555zM2.32 8.1l0.464 0.915 12.332-6.255-0.928-1.829-12.332 6.255 0.464 0.915zM1.477 8.529l-0.464 0.915 14.769 7.493 0.928-1.829-14.769-7.493-0.464 0.915zM16.246 16.022l0.464 0.915 14.769-7.493-0.928-1.829-14.769 7.493 0.464 0.915zM16.246 16.022h-1.026v14.985h2.051v-14.985h-1.026zM8.862 12.275l0.464 0.915 14.769-7.493-0.928-1.829-14.769 7.493 0.464 0.915zM6.4 16.513l-0.465 0.914 4.923 2.506 0.93-1.828-4.923-2.506-0.465 0.914z">
                    </path>
                </symbol>
            </defs>
        </svg>

    </defs>
</svg>