<svg aria-hidden="true" style="position: absolute; width: 0; height: 0; overflow: hidden;" version="1.1"
    xmlns="http://www.w3.org/2000/svg" xmlns:xlink="http://www.w3.org/1999/xlink">
    <defs>
        <symbol id="icon-cart" viewBox="0 0 29 32">
            <path
                d="M21.224 7.273c-0.028-0.117-0.056-0.235-0.086-0.353-0.389-1.536-1.002-3.205-2.002-4.52-1.031-1.356-2.536-2.4-4.59-2.4s-3.56 1.044-4.59 2.4c-1 1.315-1.613 2.984-2.002 4.52-0.030 0.118-0.059 0.235-0.086 0.353h-2.36c-2.329 0-4.26 1.781-4.415 4.073l-1.082 16c-0.17 2.519 1.855 4.654 4.415 4.654h20.241c2.559 0 4.585-2.135 4.415-4.654l-1.081-16c-0.155-2.292-2.085-4.073-4.415-4.073h-2.36zM8.646 14.545c0.845 0 1.472-0.628 1.475-1.457 0-0.035 0.001-0.069 0.001-0.104 0.001-0.077 0.004-0.192 0.009-0.342 0.011-0.299 0.033-0.73 0.076-1.249 0.031-0.368 0.073-0.777 0.129-1.212h8.416c0.056 0.434 0.098 0.843 0.129 1.212 0.044 0.519 0.066 0.95 0.076 1.249 0.005 0.149 0.008 0.265 0.009 0.342 0.001 0.036 0.001 0.071 0.001 0.107 0 0 0 1.454 1.475 1.454s1.475-1.457 1.475-1.457c-0-0.051-0.001-0.102-0.002-0.153-0.001-0.094-0.005-0.228-0.011-0.397-0.012-0.338-0.037-0.815-0.085-1.387-0.025-0.298-0.057-0.624-0.097-0.97h1.86c0.776 0 1.42 0.594 1.472 1.358l1.082 16c0.057 0.84-0.618 1.551-1.472 1.551h-20.241c-0.853 0-1.528-0.712-1.472-1.551l1.082-16c0.052-0.764 0.695-1.358 1.472-1.358h1.86c-0.040 0.346-0.072 0.672-0.098 0.97-0.048 0.572-0.073 1.049-0.085 1.387-0.006 0.169-0.009 0.303-0.011 0.397-0.001 0.050-0.002 0.1-0.002 0.15-0.001 0.83 0.632 1.46 1.475 1.46zM10.908 7.273c0.341-1.232 0.805-2.335 1.407-3.127 0.628-0.826 1.335-1.236 2.231-1.236s1.602 0.41 2.231 1.236c0.602 0.792 1.066 1.896 1.407 3.127h-7.275z">
            </path>
        </symbol>
        <symbol id="icon-search" viewBox="0 0 31 32">
            <path
                d="M22.315 21.043c1.714-2.143 2.739-4.862 2.739-7.82 0-6.919-5.609-12.527-12.527-12.527s-12.527 5.609-12.527 12.527c0 6.919 5.609 12.527 12.527 12.527 2.958 0 5.676-1.025 7.82-2.739l7.886 7.886c0.544 0.544 1.425 0.544 1.969 0s0.544-1.425 0-1.969l-7.886-7.886zM12.527 22.981c-5.389 0-9.758-4.369-9.758-9.758s4.369-9.758 9.758-9.758c5.389 0 9.757 4.369 9.757 9.758s-4.369 9.758-9.758 9.758z">
            </path>
        </symbol>
        <symbol id="icon-user" viewBox="0 0 26 32">
            <path
                d="M13.091 16c4.017 0 7.273-3.582 7.273-8s-3.256-8-7.273-8c-4.017 0-7.273 3.582-7.273 8s3.256 8 7.273 8zM13.091 12.8c-2.41 0-4.364-2.149-4.364-4.8s1.954-4.8 4.364-4.8c2.41 0 4.364 2.149 4.364 4.8s-1.954 4.8-4.364 4.8z">
            </path>
            <path
                d="M23.422 19.067c-1.225-1.23-3.121-1.495-4.635-0.596-0.277 0.164-0.521 0.315-0.745 0.454-0.596 0.368-1.059 0.654-1.656 0.899-0.75 0.308-1.719 0.541-3.295 0.541-1.561 0-2.547-0.22-3.307-0.517-0.673-0.263-1.204-0.593-1.904-1.028-0.137-0.085-0.28-0.174-0.431-0.267-1.519-0.933-3.47-0.716-4.736 0.564-0.552 0.558-1.198 1.28-1.715 2.066-0.493 0.75-0.996 1.747-0.996 2.818v3.637c0 2.41 1.954 4.363 4.364 4.363h17.455c2.41 0 4.364-1.953 4.364-4.363v-3.637c0-1.085-0.517-2.096-1.019-2.852-0.527-0.795-1.185-1.523-1.741-2.081zM20.272 20.973c0.348-0.206 0.787-0.156 1.090 0.148 0.487 0.489 0.998 1.064 1.377 1.636 0.405 0.61 0.534 1.028 0.534 1.244v3.637c0 0.803-0.651 1.454-1.455 1.454h-17.455c-0.804 0-1.455-0.651-1.455-1.454v-3.637c0-0.211 0.124-0.621 0.518-1.22 0.369-0.562 0.869-1.13 1.352-1.618 0.303-0.306 0.764-0.366 1.146-0.131 0.12 0.074 0.243 0.15 0.368 0.229 0.702 0.438 1.487 0.928 2.431 1.297 1.156 0.452 2.51 0.716 4.366 0.716 1.891 0 3.246-0.284 4.401-0.759 0.837-0.344 1.575-0.8 2.226-1.203 0.192-0.119 0.377-0.233 0.554-0.338z">
            </path>
        </symbol>
    </defs>
</svg>